<svg width="170" height="170" fill="none" xmlns="http://www.w3.org/2000/svg"><path d="M170 .77H0v170h170V.77z" fill="#fbd400"/><path d="M42.5 138.895c5.868 0 10.625-4.757 10.625-10.625s-4.757-10.625-10.625-10.625-10.625 4.757-10.625 10.625 4.757 10.625 10.625 10.625zM85 138.895c5.868 0 10.625-4.757 10.625-10.625S90.868 117.645 85 117.645s-10.625 4.757-10.625 10.625S79.132 138.895 85 138.895z" fill="#2E2D2C"/><path d="M127.5 138.895c5.868 0 10.625-4.757 10.625-10.625s-4.757-10.625-10.625-10.625-10.625 4.757-10.625 10.625 4.757 10.625 10.625 10.625z" fill="#fff"/><path d="M42.5 96.395c5.868 0 10.625-4.757 10.625-10.625S48.368 75.145 42.5 75.145 31.875 79.902 31.875 85.77 36.632 96.395 42.5 96.395z" fill="#2E2D2C"/><path d="M85 96.395c5.868 0 10.625-4.757 10.625-10.625S90.868 75.145 85 75.145 74.375 79.902 74.375 85.77 79.132 96.395 85 96.395zM127.5 96.395c5.868 0 10.625-4.757 10.625-10.625s-4.757-10.625-10.625-10.625-10.625 4.757-10.625 10.625 4.757 10.625 10.625 10.625z" fill="#fff"/><path d="M42.5 53.895c5.868 0 10.625-4.757 10.625-10.625S48.368 32.645 42.5 32.645 31.875 37.402 31.875 43.27 36.632 53.895 42.5 53.895zM85 53.895c5.868 0 10.625-4.757 10.625-10.625S90.868 32.645 85 32.645 74.375 37.402 74.375 43.27 79.132 53.895 85 53.895z" fill="#2E2D2C"/></svg>