<svg height="276" width="692" xmlns="http://www.w3.org/2000/svg"><g fill="none" fill-rule="evenodd"><g fill-rule="nonzero"><path d="m692.244 48.112h-36.821l-8.032 8.026 8.032 8.033h36.821zm-75.596 0h-36.821v16.059h36.821l8.033-8.033zm27.414-11.354v-36.828h-16.059v36.828l8.033 8.025zm-16.059 38.768v36.821h16.059v-36.821l-8.026-8.026zm0-38.769-26.039-26.039-11.355 11.355 26.039 26.039h11.355z" fill="#fbd400"/><path d="m644.062 75.526 26.039 26.039 11.355-11.355-26.033-26.039h-11.361zm11.361-27.414 26.033-26.039-11.355-11.355-26.039 26.039v11.355zm-38.775 16.059-26.039 26.039 11.355 11.355 26.039-26.039v-11.355z" fill="#fbd400"/><path d="m644.062 52.816v-4.704h-4.704l-3.322-3.329-3.329 3.329h-4.704v4.704l-3.322 3.322 3.322 3.329v4.704h4.704l3.329 3.329 3.322-3.329h4.704v-4.704l3.329-3.329zm-113.891-18.999 31.77 22.838-31.77 22.832z" fill="#fff"/><path d="m30.11 242.824 30.109-30.11-30.109-30.109-30.11 30.109z" fill="#fbd400"/><path d="m30.11 226.903c7.84 0 14.194-6.355 14.194-14.194s-6.355-14.193-14.194-14.193c-7.838 0-14.193 6.354-14.193 14.193s6.354 14.194 14.193 14.194z" fill="#fff"/></g><path d="m157.86 76.509v134.225h-81.412m120.132-174.867h92.333v104.111m0 76.172v40.982h122.972v-200.48h118.286" stroke="#fff" stroke-width="38"/><path d="m178.196 28.845h-13.31v13.309h13.31z" fill="#fbd400" fill-rule="nonzero"/><path d="m164.886 28.845h-13.309v13.309h13.309z" fill="#fff" fill-rule="nonzero"/><path d="m178.196 15.535h-13.31v13.31h13.31zm-26.619 26.619h-13.31v13.31h13.31zm13.309 0h-13.309v13.31h13.309zm13.31 0h-13.31v13.31h13.31z" fill="#fbd400" fill-rule="nonzero"/><path d="m306.784 167.923-17.871-10.081v40.706l17.871-10.082z" fill="#fff" fill-rule="nonzero"/><path d="m288.583 157.842-18.534 10.18v20.353l18.534 10.173.33-.185v-40.33z" fill="#fbd400" fill-rule="nonzero"/></g></svg>