<svg width="512" height="512" viewBox="0 0 512 512" fill="none" xmlns="http://www.w3.org/2000/svg">
<rect width="512" height="512" fill="white"/>
<path d="M256 468C373.084 468 468 373.084 468 256C468 138.916 373.084 44 256 44C138.916 44 44 138.916 44 256C44 373.084 138.916 468 256 468Z" fill="#2E2D2C"/>
<path d="M269.652 202.322L323.322 148.652L269.652 94.9817L215.982 148.652L269.652 202.322Z" fill="white"/>
<path d="M215.997 255.999L269.667 202.329L215.997 148.658L162.327 202.329L215.997 255.999Z" fill="white"/>
<path d="M162.314 309.664L215.985 255.994L162.314 202.324L108.644 255.994L162.314 309.664Z" fill="white"/>
<path d="M216 363.339L269.67 309.668L216 255.998L162.329 309.668L216 363.339Z" fill="#FAD400"/>
<path d="M269.654 309.662L323.324 255.992L269.654 202.321L215.984 255.992L269.654 309.662Z" fill="#FAD400"/>
<path d="M269.657 417.001L323.327 363.331L269.657 309.661L215.987 363.331L269.657 417.001Z" fill="#FAD400"/>
</svg>
